# Blender v2.91.0 OBJ File: 'spike.blend'
# www.blender.org
mtllib spike.mtl
o Cylinder.001
v 9.500673 0.300726 -0.245187
v -9.500673 0.300726 -0.245186
v 9.500673 0.061975 0.383029
v -9.500673 0.061974 0.383030
v 9.500673 -0.362700 -0.137844
v -9.500673 -0.362701 -0.137843
v -5.012616 -0.267047 -0.075461
v -4.749232 0.183293 -0.148326
v -5.276001 0.183292 -0.148326
v -5.012616 -0.063974 -0.724490
v -2.905537 -0.267047 -0.075461
v -2.642153 0.183293 -0.148326
v -3.168922 0.183292 -0.148326
v -2.905537 -0.063974 -0.724490
v -0.798459 -0.267047 -0.075461
v -0.535074 0.183293 -0.148326
v -1.061844 0.183292 -0.148326
v -0.798459 -0.063974 -0.724490
v 1.308620 -0.267047 -0.075461
v 1.572005 0.183293 -0.148326
v 1.045235 0.183292 -0.148326
v 1.308620 -0.063974 -0.724490
v 3.415699 -0.267047 -0.075461
v 3.679084 0.183293 -0.148326
v 3.152314 0.183292 -0.148326
v 3.415699 -0.063974 -0.724490
v 5.522778 -0.267047 -0.075461
v 5.786162 0.183293 -0.148326
v 5.259394 0.183292 -0.148326
v 5.522778 -0.063974 -0.724490
v 7.629857 -0.267047 -0.075461
v 7.893241 0.183293 -0.148326
v 7.366472 0.183292 -0.148326
v 7.629857 -0.063974 -0.724490
v 6.521760 0.242775 -0.157950
v 6.258375 -0.207564 -0.085085
v 6.785145 -0.207564 -0.085085
v 6.521760 -0.154605 -0.709826
v 4.414681 0.242776 -0.157951
v 4.151297 -0.207564 -0.085086
v 4.678066 -0.207564 -0.085086
v 4.414681 -0.154604 -0.709827
v 2.307602 0.242776 -0.157952
v 2.044218 -0.207563 -0.085086
v 2.570987 -0.207563 -0.085086
v 2.307602 -0.154604 -0.709827
v 0.200524 0.242777 -0.157952
v -0.062861 -0.207563 -0.085087
v 0.463909 -0.207563 -0.085087
v 0.200524 -0.154603 -0.709828
v -1.906555 0.242777 -0.157953
v -2.169940 -0.207562 -0.085088
v -1.643170 -0.207562 -0.085088
v -1.906555 -0.154603 -0.709829
v -4.013634 0.242778 -0.157954
v -4.277018 -0.207562 -0.085089
v -3.750250 -0.207562 -0.085088
v -4.013634 -0.154602 -0.709829
v -6.120712 0.242778 -0.157954
v -6.384097 -0.207561 -0.085089
v -5.857328 -0.207561 -0.085089
v -6.120712 -0.154602 -0.709830
v -5.470184 0.198874 -0.193539
v -5.206799 0.036808 0.232899
v -5.733569 0.036808 0.232899
v -5.470184 0.659414 0.306842
v -3.363105 0.198874 -0.193539
v -3.099720 0.036808 0.232899
v -3.626490 0.036808 0.232899
v -3.363105 0.659414 0.306841
v -1.256026 0.198874 -0.193539
v -0.992641 0.036808 0.232899
v -1.519411 0.036808 0.232899
v -1.256026 0.659414 0.306841
v 0.851053 0.198874 -0.193539
v 1.114438 0.036808 0.232899
v 0.587668 0.036808 0.232899
v 0.851053 0.659414 0.306841
v 2.958132 0.198874 -0.193539
v 3.221517 0.036808 0.232899
v 2.694747 0.036808 0.232899
v 2.958132 0.659414 0.306841
v 5.065210 0.198874 -0.193539
v 5.328594 0.036808 0.232899
v 4.801826 0.036808 0.232899
v 5.065210 0.659414 0.306842
v 7.172289 0.198874 -0.193539
v 7.435673 0.036808 0.232899
v 6.908905 0.036808 0.232899
v 7.172289 0.659414 0.306841
v -6.041595 0.068172 0.269000
v -5.778210 -0.220101 -0.084573
v -6.304979 -0.220100 -0.084573
v -6.041595 -0.595439 0.417649
v -3.934516 0.068172 0.269000
v -3.671131 -0.220101 -0.084573
v -4.197901 -0.220100 -0.084573
v -3.934516 -0.595439 0.417649
v -1.827437 0.068172 0.269000
v -1.564053 -0.220101 -0.084573
v -2.090822 -0.220100 -0.084573
v -1.827437 -0.595439 0.417649
v 0.279642 0.068172 0.269000
v 0.543027 -0.220101 -0.084573
v 0.016256 -0.220100 -0.084573
v 0.279642 -0.595439 0.417649
v 2.386721 0.068172 0.269000
v 2.650106 -0.220101 -0.084573
v 2.123336 -0.220100 -0.084573
v 2.386721 -0.595439 0.417649
v 4.493799 0.068172 0.269000
v 4.757184 -0.220101 -0.084573
v 4.230415 -0.220100 -0.084573
v 4.493799 -0.595439 0.417649
v 6.600878 0.068172 0.269000
v 6.864262 -0.220100 -0.084573
v 6.337494 -0.220100 -0.084573
v 6.600878 -0.595439 0.417649
v 6.051318 0.015402 0.289224
v 5.787933 0.177468 -0.137213
v 6.314703 0.177468 -0.137213
v 6.051318 0.692030 0.221021
v 3.944240 0.015401 0.289225
v 3.680855 0.177468 -0.137213
v 4.207624 0.177468 -0.137213
v 3.944240 0.692030 0.221021
v 1.837161 0.015401 0.289225
v 1.573776 0.177468 -0.137213
v 2.100546 0.177468 -0.137213
v 1.837161 0.692029 0.221022
v -0.269918 0.015401 0.289225
v -0.533303 0.177468 -0.137212
v -0.006533 0.177468 -0.137212
v -0.269918 0.692029 0.221022
v -2.376997 0.015401 0.289226
v -2.640382 0.177467 -0.137212
v -2.113612 0.177467 -0.137212
v -2.376997 0.692029 0.221022
v -4.484076 0.015401 0.289226
v -4.747460 0.177467 -0.137212
v -4.220692 0.177467 -0.137212
v -4.484076 0.692029 0.221023
v -6.591154 0.015401 0.289226
v -6.854538 0.177467 -0.137212
v -6.327770 0.177467 -0.137212
v -6.591154 0.692029 0.221023
v 5.384406 -0.258177 -0.131274
v 5.121021 0.030096 0.222298
v 5.647791 0.030096 0.222298
v 5.384406 -0.537425 0.488805
v 3.277327 -0.258177 -0.131274
v 3.013942 0.030095 0.222298
v 3.540712 0.030096 0.222298
v 3.277327 -0.537425 0.488805
v 1.170249 -0.258178 -0.131274
v 0.906864 0.030095 0.222298
v 1.433634 0.030095 0.222298
v 1.170249 -0.537426 0.488804
v -0.936830 -0.258179 -0.131275
v -1.200215 0.030094 0.222298
v -0.673445 0.030094 0.222298
v -0.936830 -0.537427 0.488804
v -3.043909 -0.258180 -0.131275
v -3.307294 0.030093 0.222298
v -2.780524 0.030093 0.222298
v -3.043909 -0.537428 0.488804
v -5.150988 -0.258181 -0.131275
v -5.414372 0.030092 0.222297
v -4.887604 0.030092 0.222297
v -5.150988 -0.537429 0.488804
vt 0.609666 0.950380
vt 0.364547 0.923097
vt 0.609666 0.923097
vt 0.603399 0.949737
vt 0.365499 0.923141
vt 0.365499 0.949737
vt 0.523171 0.994116
vt 0.534094 0.975198
vt 0.512248 0.975198
vt 0.609359 0.948057
vt 0.363230 0.925289
vt 0.363230 0.948057
vt 0.523171 0.975198
vt 0.534094 0.956279
vt 0.512248 0.956279
vt 0.537348 0.940087
vt 0.521291 0.978233
vt 0.505289 0.940064
vt 0.588868 0.941443
vt 0.550135 0.941284
vt 0.569364 0.974907
vt 0.385920 0.944842
vt 0.400472 0.979482
vt 0.415024 0.944842
vt 0.478193 0.941771
vt 0.463345 0.977115
vt 0.448497 0.941771
vt 0.537348 0.940087
vt 0.521291 0.978233
vt 0.505289 0.940064
vt 0.588868 0.941443
vt 0.550135 0.941284
vt 0.569364 0.974907
vt 0.385920 0.944842
vt 0.400472 0.979482
vt 0.415024 0.944842
vt 0.478193 0.941771
vt 0.463345 0.977115
vt 0.448497 0.941771
vt 0.537348 0.940087
vt 0.521291 0.978233
vt 0.505289 0.940064
vt 0.588868 0.941443
vt 0.550135 0.941284
vt 0.569364 0.974907
vt 0.385920 0.944842
vt 0.400472 0.979482
vt 0.415024 0.944842
vt 0.478193 0.941771
vt 0.463345 0.977115
vt 0.448497 0.941771
vt 0.537348 0.940087
vt 0.521291 0.978233
vt 0.505289 0.940064
vt 0.588868 0.941443
vt 0.550135 0.941284
vt 0.569364 0.974907
vt 0.385920 0.944842
vt 0.400472 0.979482
vt 0.415024 0.944842
vt 0.478193 0.941771
vt 0.463345 0.977115
vt 0.448497 0.941771
vt 0.537348 0.940087
vt 0.521291 0.978233
vt 0.505289 0.940064
vt 0.588868 0.941443
vt 0.550135 0.941284
vt 0.569364 0.974907
vt 0.385920 0.944842
vt 0.400472 0.979482
vt 0.415024 0.944842
vt 0.478193 0.941771
vt 0.463345 0.977115
vt 0.448497 0.941771
vt 0.537348 0.940087
vt 0.521291 0.978233
vt 0.505289 0.940064
vt 0.588868 0.941443
vt 0.550135 0.941284
vt 0.569364 0.974907
vt 0.385920 0.944842
vt 0.400472 0.979482
vt 0.415024 0.944842
vt 0.478193 0.941771
vt 0.463345 0.977115
vt 0.448497 0.941771
vt 0.537348 0.940087
vt 0.521291 0.978233
vt 0.505289 0.940064
vt 0.588868 0.941443
vt 0.550135 0.941284
vt 0.569364 0.974907
vt 0.385920 0.944842
vt 0.400472 0.979482
vt 0.415024 0.944842
vt 0.478193 0.941771
vt 0.463345 0.977115
vt 0.448497 0.941771
vt 0.537348 0.940087
vt 0.521291 0.978233
vt 0.505289 0.940064
vt 0.588868 0.941443
vt 0.550135 0.941284
vt 0.569364 0.974907
vt 0.385920 0.944842
vt 0.400472 0.979482
vt 0.415024 0.944842
vt 0.478193 0.941771
vt 0.463345 0.977115
vt 0.448497 0.941771
vt 0.537348 0.940087
vt 0.521291 0.978233
vt 0.505289 0.940064
vt 0.588868 0.941443
vt 0.550135 0.941284
vt 0.569364 0.974907
vt 0.385920 0.944842
vt 0.400472 0.979482
vt 0.415024 0.944842
vt 0.478193 0.941771
vt 0.463345 0.977115
vt 0.448497 0.941771
vt 0.537348 0.940087
vt 0.521291 0.978233
vt 0.505289 0.940064
vt 0.588868 0.941443
vt 0.550135 0.941284
vt 0.569364 0.974907
vt 0.385920 0.944842
vt 0.400472 0.979482
vt 0.415024 0.944842
vt 0.478193 0.941771
vt 0.463345 0.977115
vt 0.448497 0.941771
vt 0.537348 0.940087
vt 0.521291 0.978233
vt 0.505289 0.940064
vt 0.588868 0.941443
vt 0.550135 0.941284
vt 0.569364 0.974907
vt 0.385920 0.944842
vt 0.400472 0.979482
vt 0.415024 0.944842
vt 0.478193 0.941771
vt 0.463345 0.977115
vt 0.448497 0.941771
vt 0.537348 0.940087
vt 0.521291 0.978233
vt 0.505289 0.940064
vt 0.588868 0.941443
vt 0.550135 0.941284
vt 0.569364 0.974907
vt 0.385920 0.944842
vt 0.400472 0.979482
vt 0.415024 0.944842
vt 0.478193 0.941771
vt 0.463345 0.977115
vt 0.448497 0.941771
vt 0.537348 0.940087
vt 0.521291 0.978233
vt 0.505289 0.940064
vt 0.588868 0.941443
vt 0.550135 0.941284
vt 0.569364 0.974907
vt 0.385920 0.944842
vt 0.400472 0.979482
vt 0.415024 0.944842
vt 0.478193 0.941771
vt 0.463345 0.977115
vt 0.448497 0.941771
vt 0.537348 0.940087
vt 0.521291 0.978233
vt 0.505289 0.940064
vt 0.588868 0.941443
vt 0.550135 0.941284
vt 0.569364 0.974907
vt 0.385920 0.944842
vt 0.400472 0.979482
vt 0.415024 0.944842
vt 0.478193 0.941771
vt 0.463345 0.977115
vt 0.448497 0.941771
vt 0.537348 0.940087
vt 0.521291 0.978233
vt 0.505289 0.940064
vt 0.588868 0.941443
vt 0.550135 0.941284
vt 0.569364 0.974907
vt 0.385920 0.944842
vt 0.400472 0.979482
vt 0.415024 0.944842
vt 0.478193 0.941771
vt 0.463345 0.977115
vt 0.448497 0.941771
vt 0.537348 0.940087
vt 0.521291 0.978233
vt 0.505289 0.940064
vt 0.588868 0.941443
vt 0.550135 0.941284
vt 0.569364 0.974907
vt 0.385920 0.944842
vt 0.400472 0.979482
vt 0.415024 0.944842
vt 0.478193 0.941771
vt 0.463345 0.977115
vt 0.448497 0.941771
vt 0.537348 0.940087
vt 0.521291 0.978233
vt 0.505289 0.940064
vt 0.588868 0.941443
vt 0.550135 0.941284
vt 0.569364 0.974907
vt 0.385920 0.944842
vt 0.400472 0.979482
vt 0.415024 0.944842
vt 0.478193 0.941771
vt 0.463345 0.977115
vt 0.448497 0.941771
vt 0.537348 0.940087
vt 0.521291 0.978233
vt 0.505289 0.940064
vt 0.588868 0.941443
vt 0.550135 0.941284
vt 0.569364 0.974907
vt 0.385920 0.944842
vt 0.400472 0.979482
vt 0.415024 0.944842
vt 0.478193 0.941771
vt 0.463345 0.977115
vt 0.448497 0.941771
vt 0.537348 0.940087
vt 0.521291 0.978233
vt 0.505289 0.940064
vt 0.588868 0.941443
vt 0.550135 0.941284
vt 0.569364 0.974907
vt 0.385920 0.944842
vt 0.400472 0.979482
vt 0.415024 0.944842
vt 0.478193 0.941771
vt 0.463345 0.977115
vt 0.448497 0.941771
vt 0.537348 0.940087
vt 0.521291 0.978233
vt 0.505289 0.940064
vt 0.588868 0.941443
vt 0.550135 0.941284
vt 0.569364 0.974907
vt 0.385920 0.944842
vt 0.400472 0.979482
vt 0.415024 0.944842
vt 0.478193 0.941771
vt 0.463345 0.977115
vt 0.448497 0.941771
vt 0.537348 0.940087
vt 0.521291 0.978233
vt 0.505289 0.940064
vt 0.588868 0.941443
vt 0.550135 0.941284
vt 0.569364 0.974907
vt 0.385920 0.944842
vt 0.400472 0.979482
vt 0.415024 0.944842
vt 0.478193 0.941771
vt 0.463345 0.977115
vt 0.448497 0.941771
vt 0.537348 0.940087
vt 0.521291 0.978233
vt 0.505289 0.940064
vt 0.588868 0.941443
vt 0.550135 0.941284
vt 0.569364 0.974907
vt 0.385920 0.944842
vt 0.400472 0.979482
vt 0.415024 0.944842
vt 0.478193 0.941771
vt 0.463345 0.977115
vt 0.448497 0.941771
vt 0.537348 0.940087
vt 0.521291 0.978233
vt 0.505289 0.940064
vt 0.588868 0.941443
vt 0.550135 0.941284
vt 0.569364 0.974907
vt 0.385920 0.944842
vt 0.400472 0.979482
vt 0.415024 0.944842
vt 0.478193 0.941771
vt 0.463345 0.977115
vt 0.448497 0.941771
vt 0.537348 0.940087
vt 0.521291 0.978233
vt 0.505289 0.940064
vt 0.588868 0.941443
vt 0.550135 0.941284
vt 0.569364 0.974907
vt 0.385920 0.944842
vt 0.400472 0.979482
vt 0.415024 0.944842
vt 0.478193 0.941771
vt 0.463345 0.977115
vt 0.448497 0.941771
vt 0.537348 0.940087
vt 0.521291 0.978233
vt 0.505289 0.940064
vt 0.588868 0.941443
vt 0.550135 0.941284
vt 0.569364 0.974907
vt 0.385920 0.944842
vt 0.400472 0.979482
vt 0.415024 0.944842
vt 0.478193 0.941771
vt 0.463345 0.977115
vt 0.448497 0.941771
vt 0.537348 0.940087
vt 0.521291 0.978233
vt 0.505289 0.940064
vt 0.588868 0.941443
vt 0.550135 0.941284
vt 0.569364 0.974907
vt 0.385920 0.944842
vt 0.400472 0.979482
vt 0.415024 0.944842
vt 0.478193 0.941771
vt 0.463345 0.977115
vt 0.448497 0.941771
vt 0.537348 0.940087
vt 0.521291 0.978233
vt 0.505289 0.940064
vt 0.588868 0.941443
vt 0.550135 0.941284
vt 0.569364 0.974907
vt 0.385920 0.944842
vt 0.400472 0.979482
vt 0.415024 0.944842
vt 0.478193 0.941771
vt 0.463345 0.977115
vt 0.448497 0.941771
vt 0.537348 0.940087
vt 0.521291 0.978233
vt 0.505289 0.940064
vt 0.588868 0.941443
vt 0.550135 0.941284
vt 0.569364 0.974907
vt 0.385920 0.944842
vt 0.400472 0.979482
vt 0.415024 0.944842
vt 0.478193 0.941771
vt 0.463345 0.977115
vt 0.448497 0.941771
vt 0.537348 0.940087
vt 0.521291 0.978233
vt 0.505289 0.940064
vt 0.588868 0.941443
vt 0.550135 0.941284
vt 0.569364 0.974907
vt 0.385920 0.944842
vt 0.400472 0.979482
vt 0.415024 0.944842
vt 0.478193 0.941771
vt 0.463345 0.977115
vt 0.448497 0.941771
vt 0.537348 0.940087
vt 0.521291 0.978233
vt 0.505289 0.940064
vt 0.588868 0.941443
vt 0.550135 0.941284
vt 0.569364 0.974907
vt 0.385920 0.944842
vt 0.400472 0.979482
vt 0.415024 0.944842
vt 0.478193 0.941771
vt 0.463345 0.977115
vt 0.448497 0.941771
vt 0.537348 0.940087
vt 0.521291 0.978233
vt 0.505289 0.940064
vt 0.588868 0.941443
vt 0.550135 0.941284
vt 0.569364 0.974907
vt 0.385920 0.944842
vt 0.400472 0.979482
vt 0.415024 0.944842
vt 0.478193 0.941771
vt 0.463345 0.977115
vt 0.448497 0.941771
vt 0.537348 0.940087
vt 0.521291 0.978233
vt 0.505289 0.940064
vt 0.588868 0.941443
vt 0.550135 0.941284
vt 0.569364 0.974907
vt 0.385920 0.944842
vt 0.400472 0.979482
vt 0.415024 0.944842
vt 0.478193 0.941771
vt 0.463345 0.977115
vt 0.448497 0.941771
vt 0.537348 0.940087
vt 0.521291 0.978233
vt 0.505289 0.940064
vt 0.588868 0.941443
vt 0.550135 0.941284
vt 0.569364 0.974907
vt 0.385920 0.944842
vt 0.400472 0.979482
vt 0.415024 0.944842
vt 0.478193 0.941771
vt 0.463345 0.977115
vt 0.448497 0.941771
vt 0.537348 0.940087
vt 0.521291 0.978233
vt 0.505289 0.940064
vt 0.588868 0.941443
vt 0.550135 0.941284
vt 0.569364 0.974907
vt 0.385920 0.944842
vt 0.400472 0.979482
vt 0.415024 0.944842
vt 0.478193 0.941771
vt 0.463345 0.977115
vt 0.448497 0.941771
vt 0.537348 0.940087
vt 0.521291 0.978233
vt 0.505289 0.940064
vt 0.588868 0.941443
vt 0.550135 0.941284
vt 0.569364 0.974907
vt 0.385920 0.944842
vt 0.400472 0.979482
vt 0.415024 0.944842
vt 0.478193 0.941771
vt 0.463345 0.977115
vt 0.448497 0.941771
vt 0.537348 0.940087
vt 0.521291 0.978233
vt 0.505289 0.940064
vt 0.588868 0.941443
vt 0.550135 0.941284
vt 0.569364 0.974907
vt 0.385920 0.944842
vt 0.400472 0.979482
vt 0.415024 0.944842
vt 0.478193 0.941771
vt 0.463345 0.977115
vt 0.448497 0.941771
vt 0.537348 0.940087
vt 0.521291 0.978233
vt 0.505289 0.940064
vt 0.588868 0.941443
vt 0.550135 0.941284
vt 0.569364 0.974907
vt 0.385920 0.944842
vt 0.400472 0.979482
vt 0.415024 0.944842
vt 0.478193 0.941771
vt 0.463345 0.977115
vt 0.448497 0.941771
vt 0.537348 0.940087
vt 0.521291 0.978233
vt 0.505289 0.940064
vt 0.588868 0.941443
vt 0.550135 0.941284
vt 0.569364 0.974907
vt 0.385920 0.944842
vt 0.400472 0.979482
vt 0.415024 0.944842
vt 0.478193 0.941771
vt 0.463345 0.977115
vt 0.448497 0.941771
vt 0.537348 0.940087
vt 0.521291 0.978233
vt 0.505289 0.940064
vt 0.588868 0.941443
vt 0.550135 0.941284
vt 0.569364 0.974907
vt 0.385920 0.944842
vt 0.400472 0.979482
vt 0.415024 0.944842
vt 0.478193 0.941771
vt 0.463345 0.977115
vt 0.448497 0.941771
vt 0.537348 0.940087
vt 0.521291 0.978233
vt 0.505289 0.940064
vt 0.588868 0.941443
vt 0.550135 0.941284
vt 0.569364 0.974907
vt 0.385920 0.944842
vt 0.400472 0.979482
vt 0.415024 0.944842
vt 0.478193 0.941771
vt 0.463345 0.977115
vt 0.448497 0.941771
vt 0.537348 0.940087
vt 0.521291 0.978233
vt 0.505289 0.940064
vt 0.588868 0.941443
vt 0.550135 0.941284
vt 0.569364 0.974907
vt 0.385920 0.944842
vt 0.400472 0.979482
vt 0.415024 0.944842
vt 0.478193 0.941771
vt 0.463345 0.977115
vt 0.448497 0.941771
vt 0.364547 0.950380
vt 0.603399 0.923141
vt 0.609359 0.925289
vn -0.0000 0.9348 0.3553
vn 0.0000 -0.7750 0.6319
vn -1.0000 0.0000 0.0000
vn -0.0000 -0.1597 -0.9872
vn 1.0000 0.0000 0.0000
vn 0.8402 -0.5176 -0.1619
vn -0.0000 0.1597 0.9872
vn -0.0000 0.9189 -0.3944
vn -0.8402 -0.5176 -0.1619
vn -0.8402 0.4401 -0.3169
vn -0.0000 -0.9964 -0.0845
vn 0.8402 0.4401 -0.3169
vn 0.8402 0.3990 -0.3673
vn 0.0000 -0.9348 -0.3553
vn 0.0000 -0.1179 0.9930
vn -0.8402 0.3990 -0.3673
vn 0.8402 0.1185 0.5292
vn 0.0000 0.7750 -0.6319
vn -0.0000 -0.8010 -0.5986
vn -0.8402 0.1185 0.5292
vn -0.8402 0.0544 0.5396
vn -0.0000 0.5714 -0.8207
vn 0.8402 0.0544 0.5396
vn -0.8402 -0.4945 -0.2227
vn 0.0000 0.4251 0.9052
vn 0.8402 -0.4945 -0.2227
usemtl Material.003
s off
f 1/1/1 4/2/1 3/3/1
f 4/4/2 5/5/2 3/6/2
f 4/7/3 2/8/3 6/9/3
f 6/10/4 1/11/4 5/12/4
f 1/13/5 3/14/5 5/15/5
f 7/16/6 10/17/6 8/18/6
f 7/19/7 8/20/7 9/21/7
f 8/22/8 10/23/8 9/24/8
f 9/25/9 10/26/9 7/27/9
f 11/28/6 14/29/6 12/30/6
f 11/31/7 12/32/7 13/33/7
f 12/34/8 14/35/8 13/36/8
f 13/37/9 14/38/9 11/39/9
f 15/40/6 18/41/6 16/42/6
f 15/43/7 16/44/7 17/45/7
f 16/46/8 18/47/8 17/48/8
f 17/49/9 18/50/9 15/51/9
f 19/52/6 22/53/6 20/54/6
f 19/55/7 20/56/7 21/57/7
f 20/58/8 22/59/8 21/60/8
f 21/61/9 22/62/9 19/63/9
f 23/64/6 26/65/6 24/66/6
f 23/67/7 24/68/7 25/69/7
f 24/70/8 26/71/8 25/72/8
f 25/73/9 26/74/9 23/75/9
f 27/76/6 30/77/6 28/78/6
f 27/79/7 28/80/7 29/81/7
f 28/82/8 30/83/8 29/84/8
f 29/85/9 30/86/9 27/87/9
f 31/88/6 34/89/6 32/90/6
f 31/91/7 32/92/7 33/93/7
f 32/94/8 34/95/8 33/96/8
f 33/97/9 34/98/9 31/99/9
f 35/100/10 38/101/10 36/102/10
f 35/103/7 36/104/7 37/105/7
f 36/106/11 38/107/11 37/108/11
f 37/109/12 38/110/12 35/111/12
f 39/112/10 42/113/10 40/114/10
f 39/115/7 40/116/7 41/117/7
f 40/118/11 42/119/11 41/120/11
f 41/121/12 42/122/12 39/123/12
f 43/124/10 46/125/10 44/126/10
f 43/127/7 44/128/7 45/129/7
f 44/130/11 46/131/11 45/132/11
f 45/133/12 46/134/12 43/135/12
f 47/136/10 50/137/10 48/138/10
f 47/139/7 48/140/7 49/141/7
f 48/142/11 50/143/11 49/144/11
f 49/145/12 50/146/12 47/147/12
f 51/148/10 54/149/10 52/150/10
f 51/151/7 52/152/7 53/153/7
f 52/154/11 54/155/11 53/156/11
f 53/157/12 54/158/12 51/159/12
f 55/160/10 58/161/10 56/162/10
f 55/163/7 56/164/7 57/165/7
f 56/166/11 58/167/11 57/168/11
f 57/169/12 58/170/12 55/171/12
f 59/172/10 62/173/10 60/174/10
f 59/175/7 60/176/7 61/177/7
f 60/178/11 62/179/11 61/180/11
f 61/181/12 62/182/12 59/183/12
f 63/184/13 66/185/13 64/186/13
f 63/187/14 64/188/14 65/189/14
f 64/190/15 66/191/15 65/192/15
f 65/193/16 66/194/16 63/195/16
f 67/196/13 70/197/13 68/198/13
f 67/199/14 68/200/14 69/201/14
f 68/202/15 70/203/15 69/204/15
f 69/205/16 70/206/16 67/207/16
f 71/208/13 74/209/13 72/210/13
f 71/211/14 72/212/14 73/213/14
f 72/214/15 74/215/15 73/216/15
f 73/217/16 74/218/16 71/219/16
f 75/220/13 78/221/13 76/222/13
f 75/223/14 76/224/14 77/225/14
f 76/226/15 78/227/15 77/228/15
f 77/229/16 78/230/16 75/231/16
f 79/232/13 82/233/13 80/234/13
f 79/235/14 80/236/14 81/237/14
f 80/238/15 82/239/15 81/240/15
f 81/241/16 82/242/16 79/243/16
f 83/244/13 86/245/13 84/246/13
f 83/247/14 84/248/14 85/249/14
f 84/250/15 86/251/15 85/252/15
f 85/253/16 86/254/16 83/255/16
f 87/256/13 90/257/13 88/258/13
f 87/259/14 88/260/14 89/261/14
f 88/262/15 90/263/15 89/264/15
f 89/265/16 90/266/16 87/267/16
f 91/268/17 94/269/17 92/270/17
f 91/271/18 92/272/18 93/273/18
f 92/274/19 94/275/19 93/276/19
f 93/277/20 94/278/20 91/279/20
f 95/280/17 98/281/17 96/282/17
f 95/283/18 96/284/18 97/285/18
f 96/286/19 98/287/19 97/288/19
f 97/289/20 98/290/20 95/291/20
f 99/292/17 102/293/17 100/294/17
f 99/295/18 100/296/18 101/297/18
f 100/298/19 102/299/19 101/300/19
f 101/301/20 102/302/20 99/303/20
f 103/304/17 106/305/17 104/306/17
f 103/307/18 104/308/18 105/309/18
f 104/310/19 106/311/19 105/312/19
f 105/313/20 106/314/20 103/315/20
f 107/316/17 110/317/17 108/318/17
f 107/319/18 108/320/18 109/321/18
f 108/322/19 110/323/19 109/324/19
f 109/325/20 110/326/20 107/327/20
f 111/328/17 114/329/17 112/330/17
f 111/331/18 112/332/18 113/333/18
f 112/334/19 114/335/19 113/336/19
f 113/337/20 114/338/20 111/339/20
f 115/340/17 118/341/17 116/342/17
f 115/343/18 116/344/18 117/345/18
f 116/346/19 118/347/19 117/348/19
f 117/349/20 118/350/20 115/351/20
f 119/352/21 122/353/21 120/354/21
f 119/355/14 120/356/14 121/357/14
f 120/358/22 122/359/22 121/360/22
f 121/361/23 122/362/23 119/363/23
f 123/364/21 126/365/21 124/366/21
f 123/367/14 124/368/14 125/369/14
f 124/370/22 126/371/22 125/372/22
f 125/373/23 126/374/23 123/375/23
f 127/376/21 130/377/21 128/378/21
f 127/379/14 128/380/14 129/381/14
f 128/382/22 130/383/22 129/384/22
f 129/385/23 130/386/23 127/387/23
f 131/388/21 134/389/21 132/390/21
f 131/391/14 132/392/14 133/393/14
f 132/394/22 134/395/22 133/396/22
f 133/397/23 134/398/23 131/399/23
f 135/400/21 138/401/21 136/402/21
f 135/403/14 136/404/14 137/405/14
f 136/406/22 138/407/22 137/408/22
f 137/409/23 138/410/23 135/411/23
f 139/412/21 142/413/21 140/414/21
f 139/415/14 140/416/14 141/417/14
f 140/418/22 142/419/22 141/420/22
f 141/421/23 142/422/23 139/423/23
f 143/424/21 146/425/21 144/426/21
f 143/427/14 144/428/14 145/429/14
f 144/430/22 146/431/22 145/432/22
f 145/433/23 146/434/23 143/435/23
f 147/436/24 150/437/24 148/438/24
f 147/439/18 148/440/18 149/441/18
f 148/442/25 150/443/25 149/444/25
f 149/445/26 150/446/26 147/447/26
f 151/448/24 154/449/24 152/450/24
f 151/451/18 152/452/18 153/453/18
f 152/454/25 154/455/25 153/456/25
f 153/457/26 154/458/26 151/459/26
f 155/460/24 158/461/24 156/462/24
f 155/463/18 156/464/18 157/465/18
f 156/466/25 158/467/25 157/468/25
f 157/469/26 158/470/26 155/471/26
f 159/472/24 162/473/24 160/474/24
f 159/475/18 160/476/18 161/477/18
f 160/478/25 162/479/25 161/480/25
f 161/481/26 162/482/26 159/483/26
f 163/484/24 166/485/24 164/486/24
f 163/487/18 164/488/18 165/489/18
f 164/490/25 166/491/25 165/492/25
f 165/493/26 166/494/26 163/495/26
f 167/496/24 170/497/24 168/498/24
f 167/499/18 168/500/18 169/501/18
f 168/502/25 170/503/25 169/504/25
f 169/505/26 170/506/26 167/507/26
f 1/1/1 2/508/1 4/2/1
f 4/4/2 6/509/2 5/5/2
f 6/10/4 2/510/4 1/11/4
